<svg width="30" height="25" viewBox="0 0 30 25" fill="none" xmlns="http://www.w3.org/2000/svg">
<path d="M9.4377 25C20.7557 25 26.9479 15.3808 26.9479 7.04153C26.9479 6.7711 26.942 6.49467 26.9303 6.22425C28.1348 5.33082 29.1744 4.22419 30 2.95634C28.8782 3.46825 27.6871 3.80257 26.4674 3.94789C27.7516 3.1584 28.7132 1.91814 29.1738 0.457033C27.9657 1.19135 26.6445 1.70935 25.2668 1.98883C24.3385 0.977263 23.1112 0.307487 21.7746 0.0830526C20.438 -0.141382 19.0665 0.0920259 17.8722 0.747189C16.6779 1.40235 15.7273 2.44278 15.1673 3.70761C14.6074 4.97245 14.4693 6.39124 14.7744 7.74463C12.3281 7.61872 9.93492 6.96697 7.74998 5.83162C5.56503 4.69627 3.63712 3.10267 2.09121 1.15412C1.3055 2.54347 1.06507 4.18751 1.41879 5.75213C1.77251 7.31674 2.69383 8.68453 3.99551 9.57749C3.01829 9.54567 2.06247 9.27583 1.20703 8.79026V8.86838C1.20616 10.3264 1.69762 11.7397 2.59789 12.8681C3.49815 13.9965 4.75165 14.7703 6.14531 15.0581C5.24007 15.3121 4.28998 15.3491 3.36855 15.1662C3.76182 16.4201 4.52697 17.5168 5.55721 18.3033C6.58746 19.0897 7.8314 19.5266 9.11543 19.5531C6.93553 21.3093 4.24272 22.2618 1.4707 22.2573C0.979109 22.2565 0.487999 22.2256 0 22.1648C2.81607 24.0177 6.09191 25.0018 9.4377 25Z" fill="white"/>
</svg>
