<svg width="36" height="36" viewBox="0 0 36 36" fill="none" xmlns="http://www.w3.org/2000/svg">
<path d="M14.832 15.102C13.806 15.102 12.996 16.002 12.996 17.1C12.996 18.198 13.824 19.098 14.832 19.098C15.858 19.098 16.668 18.198 16.668 17.1C16.686 16.002 15.858 15.102 14.832 15.102ZM21.402 15.102C20.376 15.102 19.566 16.002 19.566 17.1C19.566 18.198 20.394 19.098 21.402 19.098C22.428 19.098 23.238 18.198 23.238 17.1C23.238 16.002 22.428 15.102 21.402 15.102Z" fill="white"/>
<path d="M30.15 0H6.02997C3.99597 0 2.33997 1.656 2.33997 3.708V28.044C2.33997 30.096 3.99597 31.752 6.02997 31.752H26.442L25.488 28.422L27.792 30.564L29.97 32.58L33.84 36V3.708C33.84 1.656 32.184 0 30.15 0ZM23.202 23.508C23.202 23.508 22.554 22.734 22.014 22.05C24.372 21.384 25.272 19.908 25.272 19.908C24.534 20.394 23.832 20.736 23.202 20.97C22.302 21.348 21.438 21.6 20.592 21.744C18.864 22.068 17.28 21.978 15.93 21.726C14.904 21.528 14.022 21.24 13.284 20.952C12.87 20.79 12.42 20.592 11.97 20.34C11.916 20.304 11.862 20.286 11.808 20.25C11.772 20.232 11.754 20.214 11.736 20.196C11.412 20.016 11.232 19.89 11.232 19.89C11.232 19.89 12.096 21.33 14.382 22.014C13.842 22.698 13.176 23.508 13.176 23.508C9.19797 23.382 7.68597 20.772 7.68597 20.772C7.68597 14.976 10.278 10.278 10.278 10.278C12.87 8.334 15.336 8.388 15.336 8.388L15.516 8.604C12.276 9.54 10.782 10.962 10.782 10.962C10.782 10.962 11.178 10.746 11.844 10.44C13.77 9.594 15.3 9.36 15.93 9.306C16.038 9.288 16.128 9.27 16.236 9.27C17.334 9.126 18.576 9.09 19.872 9.234C21.582 9.432 23.418 9.936 25.29 10.962C25.29 10.962 23.868 9.612 20.808 8.676L21.06 8.388C21.06 8.388 23.526 8.334 26.118 10.278C26.118 10.278 28.71 14.976 28.71 20.772C28.71 20.772 27.18 23.382 23.202 23.508Z" fill="white"/>
</svg>
